<?xml version="1.0" encoding="utf-8"?>
<svg viewBox="0 0 87.31 74.001" xmlns="http://www.w3.org/2000/svg">
  <defs>
    <style>
            .cls-1{fill:#d3d3d3}.cls-2{fill:#a6a6a6}.cls-3{fill:#727272}.cls-4{fill:#444}.cls-6{fill:#595959}.cls-7{fill:#a5a5a5}.cls-8{fill:#7f7f7f}.cls-16{fill:#212121}.cls-17{fill:#3a3a3a}.cls-18{fill:#191919}.cls-28{fill:#008c00}.cls-30{fill:#0f0}.cls-34{fill:#00e200}.cls-38{fill:#002800}.cls-40{fill:#020c00}.cls-41{fill:#111}.cls-42{fill:#161616}.cls-43{fill:#0f0f0f}.cls-44{fill:#0c0c0c}.cls-48{fill:#353535}
        </style>
  </defs>
  <path id="Path_1" d="M53.375 0L0 4.537l48.239.9z" class="cls-1"/>
  <path id="Path_2" d="M104.313 0l-5.136 5.439 18.3 6.681z" class="cls-2" transform="matrix(1, 0, 0, 1, -50.938, 0)"/>
  <path id="Path_3" d="M138.248 36.995L99.177 11.19l18.3 6.68z" class="cls-2" transform="matrix(1, 0, 0, 1, -50.938, -5.751)"/>
  <path id="Path_4" d="M138.248 36.995L99.177 11.19l16.565 18.956z" class="cls-3" transform="matrix(1, 0, 0, 1, -50.938, -5.751)"/>
  <path id="Path_5" d="M155.74 57.039l-2.918 4.294-19.588-11.143z" class="cls-4" transform="matrix(1, 0, 0, 1, -68.43, -25.795)"/>
  <path id="Path_6" fill="#282828" d="M175.528 64.282l-2.918 4.294-.848 16.62z" transform="matrix(1, 0, 0, 1, -88.218002, -33.036999)"/>
  <path id="Path_7" d="M167.077 90.431l3.123-17.315-.848 16.62z" class="cls-6" transform="matrix(1, 0, 0, 1, -85.811996, -37.577999)"/>
  <path id="Path_8" d="M167.077 90.431l3.123-17.315h-1.765z" class="cls-7" transform="matrix(1, 0, 0, 1, -85.811996, -37.577999)"/>
  <path id="Path_9" d="M105.192 20.467l-6.014-9.278 16.565 18.956z" class="cls-3" transform="matrix(1, 0, 0, 1, -50.938, -5.75)"/>
  <path id="Path_10" d="M104.151 29.953l-7-.306 17.549 9.985z" class="cls-3" transform="matrix(1, 0, 0, 1, -49.896999, -15.237)"/>
  <path id="Path_11" d="M54.254 19.513l-6.014-9.278L0 9.333z" class="cls-8" transform="matrix(1, 0, 0, 1, 0, -4.797)"/>
  <path id="Path_12" fill="#666" d="M15.141 34.061l4.325-13.468L0 9.334z" transform="matrix(1, 0, 0, 1, 0, -4.797)"/>
  <path id="Path_13" fill="#ededed" d="M8.462 25.248l6.678 8.812L0 9.333z" transform="matrix(1, 0, 0, 1, 0, -4.797)"/>
  <path id="Path_14" d="M24.076 50.888L17.4 42.076l4.808 28.336z" class="cls-1" transform="matrix(1, 0, 0, 1, -8.936, -21.625)"/>
  <path id="Path_15" fill="#2b2b2b" d="M31.129 45.965L35.453 32.5 37.3 57.784z" transform="matrix(1, 0, 0, 1, -15.988, -16.702)"/>
  <path id="Path_16" d="M31.129 60.207l1.886 10.786 4.285 1.033z" class="cls-7" transform="matrix(1, 0, 0, 1, -15.988, -30.943001)"/>
  <path id="Path_17" d="M29.153 60.207l1.887 10.786-3.757 8.737z" class="cls-7" transform="matrix(1, 0, 0, 1, -14.013, -30.943001)"/>
  <path id="Path_18" fill="#939393" d="M44.979 100.25L31.04 82.4l-3.757 8.737z" transform="matrix(1, 0, 0, 1, -14.013, -42.348999)"/>
  <path id="Path_19" fill="#c9c9c9" d="M64.074 125.587l-19.095-16.1-17.7-9.115z" transform="matrix(1, 0, 0, 1, -14.013, -51.587002)"/>
  <path id="Path_20" fill="#6d6d6d" d="M48.946 100.25L35.007 82.4l31.226 21.67z" transform="matrix(1, 0, 0, 1, -17.98, -42.348999)"/>
  <path id="Path_21" d="M39.289 83.431L35.006 82.4l31.226 21.67z" class="cls-4" transform="matrix(1, 0, 0, 1, -17.979, -42.348999)"/>
  <path id="Path_22" d="M82.761 135.226l-1.809-12.28-17.285-3.818z" class="cls-8" transform="matrix(1, 0, 0, 1, -32.699001, -61.224998)"/>
  <path id="Path_23" fill="#757575" d="M101.013 139.263l4.152-8.143-5.965-4.137z" transform="matrix(1, 0, 0, 1, -50.952, -65.263)"/>
  <path id="Path_24" d="M124.35 120.27l-21.426 13.809 32.641-17.184z" class="cls-16" transform="matrix(1, 0, 0, 1, -52.862, -60.077999)"/>
  <path id="Path_25" d="M146.975 116.011l11.942-7.4-.727 4.028z" class="cls-17" transform="matrix(1, 0, 0, 1, -75.487, -55.819)"/>
  <path id="Path_26" d="M107.077 129.5l-4.152 8.143 21.426-13.809z" class="cls-17" transform="matrix(1, 0, 0, 1, -52.862999, -63.646999)"/>
  <path id="Path_27" d="M128 123.839l-17.97 3.682.7 1.984z" class="cls-17" transform="matrix(1, 0, 0, 1, -56.512001, -63.646999)"/>
  <path id="Path_28" d="M99.2 126.983l5.265 2.154.7 1.984z" class="cls-18" transform="matrix(1, 0, 0, 1, -50.952, -65.263)"/>
  <path id="Path_29" d="M128 116.011l-17.97 3.682 29.913-11.084z" class="cls-6" transform="matrix(1, 0, 0, 1, -56.512001, -55.819)"/>
  <path id="Path_30" fill="#292929" d="M47.254 19.207l7 .306L0 9.333z" transform="matrix(1, 0, 0, 1, 0, -4.797)"/>
  <path id="Path_31" fill="#013a01" d="M62.041 35.01v6.007l-9.961-3.836z" transform="matrix(1, 0, 0, 1, -26.747999, -17.993)"/>
  <path id="Path_32" fill="#003500" d="M72.559 35.01v6.007l19.741 4.75z" transform="matrix(1, 0, 0, 1, -37.266998, -17.993)"/>
  <path id="Path_33" fill="#013f01" d="M52.079 48.5l9.961-5.185-9.961-3.836z" transform="matrix(1, 0, 0, 1, -26.747999, -20.289)"/>
  <path id="Path_34" fill="#148400" d="M52.079 52.555V66.4l9.961-19.03z" transform="matrix(1, 0, 0, 1, -26.747999, -24.346001)"/>
  <path id="Path_35" fill="#00c900" d="M79.458 106.041l-27.38-19.524 17.561 4.451z" transform="matrix(1, 0, 0, 1, -26.747999, -44.466)"/>
  <path id="Path_36" fill="#0d6600" d="M108.369 114.151l25.716-11.251-12.857-.6z" transform="matrix(1, 0, 0, 1, -55.659, -52.575001)"/>
  <path id="Path_37" fill="#090" d="M115.343 88.018l15.386-5.62-5.92 9.671z" transform="matrix(1, 0, 0, 1, -59.241001, -42.348999)"/>
  <path id="Path_38" fill="#00a600" d="M115.343 78.062l15.386-5.62-8.491-9.416z" transform="matrix(1, 0, 0, 1, -59.241001, -32.391998)"/>
  <path id="Path_39" d="M147.789 67.93l-9.78 4.512-8.491-9.416z" class="cls-28" transform="matrix(1, 0, 0, 1, -66.521004, -32.391998)"/>
  <path id="Path_40" fill="#00ef00" d="M100.211 82.5l-14.33-10.84L87 83.332z" transform="matrix(1, 0, 0, 1, -44.109001, -36.827999)"/>
  <path id="Path_41" d="M100.211 78.707l-14.33-10.84 10.939-3.585z" class="cls-30" transform="matrix(1, 0, 0, 1, -44.109001, -33.037998)"/>
  <path id="Path_42" fill="#6cff6c" d="M111.761 75.038l-1.069-17.9-2.323 3.47z" transform="matrix(1, 0, 0, 1, -55.659, -29.368)"/>
  <path id="Path_43" fill="#a5f9a5" d="M72.559 47.369l19.741 4.75-2.323 3.47z" transform="matrix(1, 0, 0, 1, -37.266998, -24.344999)"/>
  <path id="Path_44" fill="#00d800" d="M69.639 83.331l-17.56-4.451 16.441-7.222z" transform="matrix(1, 0, 0, 1, -26.747999, -36.827999)"/>
  <path id="Path_45" d="M89.977 55.59l-17.418-8.22 6.48 11.805z" class="cls-34" transform="matrix(1, 0, 0, 1, -37.266998, -24.344999)"/>
  <path id="Path_46" fill="#0c0" d="M52.079 66.4l9.961-19.031 6.48 11.805z" transform="matrix(1, 0, 0, 1, -26.747999, -24.344999)"/>
  <path id="Path_47" d="M88.182 94.794L98 109.867l3.392-15.906z" class="cls-34" transform="matrix(1, 0, 0, 1, -45.291, -48.291)"/>
  <path id="Path_48" d="M121.227 98.012l-12.858 11.854 3.392-15.905z" class="cls-28" transform="matrix(1, 0, 0, 1, -55.659, -48.291)"/>
  <path id="Path_49" fill="#008200" d="M134.8 92.07l12.858.6-6.934-10.27z" transform="matrix(1, 0, 0, 1, -69.236, -42.348999)"/>
  <path id="Path_50" fill="#0c7a00" d="M146.975 77.628l9.78-4.512-2.842 14.784z" transform="matrix(1, 0, 0, 1, -75.487, -37.577999)"/>
  <path id="Path_51" d="M72.559 35.01l19.57 7.884.171 2.874z" class="cls-38" transform="matrix(1, 0, 0, 1, -37.266998, -17.993)"/>
  <path id="Path_52" d="M147.789 65.738l-17.321-6.978-.95 2.073z" class="cls-38" transform="matrix(1, 0, 0, 1, -66.521004, -30.200001)"/>
  <path id="Path_53" fill="#031600" d="M114.214 75.038L121.108 60l-7.963-2.86z" transform="matrix(1, 0, 0, 1, -58.112, -29.368)"/>
  <path id="Path_54" d="M122.059 57.928l-.95 2.072-7.963-2.86z" class="cls-40" transform="matrix(1, 0, 0, 1, -58.112, -29.368)"/>
  <path id="Path_55" d="M121.878 54.89l-9.085-3.659.172 2.873z" class="cls-40" transform="matrix(1, 0, 0, 1, -57.931, -26.33)"/>
  <path id="Path_56" d="M55.847 30.725L40.019 29.5l6.672-2.831z" class="cls-41" transform="matrix(1, 0, 0, 1, -20.554001, -13.708)"/>
  <path id="Path_57" d="M19.465 20.592l6.672-2.831L0 9.334z" class="cls-42" transform="matrix(1, 0, 0, 1, 0, -4.797)"/>
  <path id="Path_58" d="M26.137 17.761l21.116 1.446L0 9.333z" class="cls-41" transform="matrix(1, 0, 0, 1, 0, -4.796)"/>
  <path id="Path_59" d="M62.892 30.725l11.961-2.607-21.117-1.446z" class="cls-42" transform="matrix(1, 0, 0, 1, -27.599001, -13.708)"/>
  <path id="Path_60" d="M72.559 32.254l11.961-2.607 7.609 10.49z" class="cls-43" transform="matrix(1, 0, 0, 1, -37.266998, -15.237)"/>
  <path id="Path_61" d="M114.7 39.632l-17.549-9.984 7.609 10.49z" class="cls-44" transform="matrix(1, 0, 0, 1, -49.896999, -15.237)"/>
  <path id="Path_62" d="M122.736 50.19l-.858 4.165-9.084-3.655z" class="cls-41" transform="matrix(1, 0, 0, 1, -57.931999, -25.795)"/>
  <path id="Path_63" fill="#010600" d="M55.847 33.719L40.019 32.5l5.866 3.393z" transform="matrix(1, 0, 0, 1, -20.554001, -16.702)"/>
  <path id="Path_64" fill="#141414" d="M41.863 57.784L40.019 32.5l5.866 3.393z" transform="matrix(1, 0, 0, 1, -20.554001, -16.702)"/>
  <path id="Path_65" d="M43.81 61.372l4.022.97V39.478z" class="cls-43" transform="matrix(1, 0, 0, 1, -22.500999, -20.289)"/>
  <path id="Path_66" d="M43.81 84.523l4.022.97 22.922 19.667z" class="cls-18" transform="matrix(1, 0, 0, 1, -22.500999, -43.439999)"/>
  <path id="Path_67" d="M79.458 106.041l-27.38-19.524L75 106.186z" class="cls-18" transform="matrix(1, 0, 0, 1, -26.747999, -44.466)"/>
  <path id="Path_68" d="M103.662 126.685l.807 2.3-5.269-2.155z" class="cls-18" transform="matrix(1, 0, 0, 1, -50.952, -65.110001)"/>
  <path id="Path_69" d="M108.369 114.784l.807 2.3 24.908-13.554z" class="cls-16" transform="matrix(1, 0, 0, 1, -55.659, -53.208)"/>
  <path id="Path_70" d="M132.328 50.19l-.857 4.165 17.321 6.978z" class="cls-44" transform="matrix(1, 0, 0, 1, -67.524002, -25.795)"/>
  <path id="Path_71" d="M133.234 50.19l17.823 11.143h1.764z" class="cls-6" transform="matrix(1, 0, 0, 1, -68.43, -25.795)"/>
  <path id="Path_72" d="M133.234 50.19l17.823 11.143H149.7z" class="cls-41" transform="matrix(1, 0, 0, 1, -68.43, -25.795)"/>
  <path id="Path_73" fill="#0a0a0a" d="M161.239 87.9l4.2-14.782h-1.359z" transform="matrix(1, 0, 0, 1, -82.813004, -37.577999)"/>
  <path id="Path_74" d="M161.239 87.9l4.2-14.782-1.362 17.314z" class="cls-41" transform="matrix(1, 0, 0, 1, -82.813004, -37.577999)"/>
  <path id="Path_75" d="M137.777 106.061l-27.748 11.021 24.908-13.554z" class="cls-48" transform="matrix(1, 0, 0, 1, -56.512001, -53.208)"/>
  <path id="Path_76" fill="#afafaf" d="M137.777 108.672l-27.748 11.021 29.913-11.085z" transform="matrix(1, 0, 0, 1, -56.512001, -55.819)"/>
  <path id="Path_77" d="M167.077 108l2.279-.695-.114.631z" class="cls-48" transform="matrix(1, 0, 0, 1, -85.811996, -55.152)"/>
</svg>